<svg xmlns="http://www.w3.org/2000/svg" xmlns:xlink="http://www.w3.org/1999/xlink" width="1351px" height="630px" style="shape-rendering:geometricPrecision; text-rendering:geometricPrecision; image-rendering:optimizeQuality; fill-rule:evenodd; clip-rule:evenodd"><g><path style="opacity:0.949" fill="#fed017" d="M 438.5,239.5 C 431.167,239.5 423.833,239.5 416.5,239.5C 414.739,247.759 413.406,256.093 412.5,264.5C 411.833,264.5 411.5,264.833 411.5,265.5C 380.707,297.699 358.874,335.699 346,379.5C 345.586,379.957 345.086,380.291 344.5,380.5C 336.788,335.832 314.121,301.666 276.5,278C 304.607,278.058 328.107,288.225 347,308.5C 380.907,250.162 431.407,213.496 498.5,198.5C 499.167,198.667 499.833,198.833 500.5,199C 478.345,210.413 457.679,223.913 438.5,239.5 Z"></path></g><g><path style="opacity:0.951" fill="#ffd016" d="M 830.5,219.5 C 841.597,216.758 850.097,220.091 856,229.5C 857.283,248.987 848.116,257.154 828.5,254C 818.276,249.529 814.943,241.862 818.5,231C 821.091,225.574 825.091,221.74 830.5,219.5 Z"></path></g><g><path style="opacity:0.975" fill="#1722fe" d="M 438.5,239.5 C 452.523,239.219 466.523,239.552 480.5,240.5C 494.426,243.363 506.26,249.696 516,259.5C 516.717,262.215 518.217,264.382 520.5,266C 521.958,271.02 523.792,275.854 526,280.5C 529.423,303.705 524.423,324.705 511,343.5C 497.252,357.554 480.419,365.72 460.5,368C 439.503,368.5 418.503,368.667 397.5,368.5C 402.816,334.255 407.482,299.921 411.5,265.5C 412.167,265.5 412.5,265.167 412.5,264.5C 413.406,256.093 414.739,247.759 416.5,239.5C 423.833,239.5 431.167,239.5 438.5,239.5 Z M 446.5,270.5 C 458.509,269.638 470.175,271.138 481.5,275C 482.763,277.386 484.597,279.219 487,280.5C 491.167,287.245 492.5,294.578 491,302.5C 489.466,315.499 483.3,325.499 472.5,332.5C 461.178,336.466 449.511,338.133 437.5,337.5C 440.746,315.196 443.746,292.863 446.5,270.5 Z"></path></g><g><path style="opacity:0.97" fill="#1621ff" d="M 581.5,263.5 C 593.796,262.892 605.463,265.226 616.5,270.5C 620.178,273.679 623.678,277.012 627,280.5C 630.05,284.985 632.05,289.985 633,295.5C 636.633,316.087 632.467,334.754 620.5,351.5C 603.83,367.821 583.83,373.654 560.5,369C 537.529,364.113 526.196,349.78 526.5,326C 526.432,305.991 533.432,289.158 547.5,275.5C 551.042,273.125 554.709,270.958 558.5,269C 566.007,265.937 573.673,264.104 581.5,263.5 Z M 578.5,292.5 C 584.732,291.939 590.732,292.772 596.5,295C 599.353,299.159 600.686,303.826 600.5,309C 600.175,319.164 597.175,328.331 591.5,336.5C 582.066,343.712 572.566,344.045 563,337.5C 560.148,328.241 560.148,318.908 563,309.5C 564.327,306.503 565.661,303.503 567,300.5C 569.403,299.219 571.237,297.386 572.5,295C 574.723,294.434 576.723,293.6 578.5,292.5 Z"></path></g><g><path style="opacity:0.968" fill="#1622ff" d="M 706.5,263.5 C 712.212,263.756 717.879,264.422 723.5,265.5C 726.037,267.267 728.703,268.767 731.5,270C 733.346,273.001 735.346,275.835 737.5,278.5C 747.738,270.197 759.405,265.197 772.5,263.5C 782.122,262.901 789.955,266.234 796,273.5C 798.999,279.661 800.832,286.161 801.5,293C 798.056,318.164 794.723,343.331 791.5,368.5C 779.833,368.5 768.167,368.5 756.5,368.5C 759.332,349.248 761.665,329.915 763.5,310.5C 763.67,308.285 764.337,306.285 765.5,304.5C 763.97,302.774 762.97,300.774 762.5,298.5C 760.668,297.752 759.001,296.752 757.5,295.5C 753.952,297.184 750.285,298.684 746.5,300C 743.944,302.215 741.111,304.049 738,305.5C 734.847,326.115 732.014,346.782 729.5,367.5C 718.218,368.478 706.885,368.812 695.5,368.5C 696.878,347.883 699.212,327.383 702.5,307C 703.613,300.71 701.113,296.877 695,295.5C 691.23,297.123 687.397,298.623 683.5,300C 681.569,302.304 679.236,304.138 676.5,305.5C 675.5,310 674.5,314.5 673.5,319C 671.948,335.583 669.948,352.083 667.5,368.5C 655.833,368.5 644.167,368.5 632.5,368.5C 636.734,334.111 641.401,299.777 646.5,265.5C 658.167,265.5 669.833,265.5 681.5,265.5C 681.123,268.525 680.956,271.525 681,274.5C 688.925,269.148 697.425,265.482 706.5,263.5 Z"></path></g><g><path style="opacity:0.966" fill="#1622ff" d="M 926.5,263.5 C 935.573,263.003 943.906,265.17 951.5,270C 953.407,273.212 955.24,276.379 957,279.5C 958.497,287.779 958.831,296.112 958,304.5C 954.942,325.862 951.775,347.196 948.5,368.5C 936.833,368.5 925.167,368.5 913.5,368.5C 916.823,347.774 919.823,326.941 922.5,306C 922.333,303.833 922.167,301.667 922,299.5C 919.616,298.057 917.116,296.723 914.5,295.5C 906.052,297.357 898.886,301.357 893,307.5C 889.576,327.834 886.409,348.167 883.5,368.5C 871.833,368.5 860.167,368.5 848.5,368.5C 853.988,334.602 858.988,300.602 863.5,266.5C 875.167,265.167 886.833,265.167 898.5,266.5C 897.607,269.084 897.274,271.751 897.5,274.5C 903.732,271.137 910.232,268.137 917,265.5C 920.324,264.95 923.491,264.283 926.5,263.5 Z"></path></g><g><path style="opacity:0.97" fill="#1622ff" d="M 997.5,264.5 C 1004.7,264.256 1011.87,264.59 1019,265.5C 1022.96,267.533 1027.13,269.033 1031.5,270C 1032.83,272.087 1034.67,273.587 1037,274.5C 1037.7,271.522 1038.2,268.522 1038.5,265.5C 1050.17,265.5 1061.83,265.5 1073.5,265.5C 1069.3,299.96 1064.3,334.294 1058.5,368.5C 1046.83,368.667 1035.16,368.5 1023.5,368C 1024.6,365.599 1024.77,363.099 1024,360.5C 1023.63,361.416 1023.13,362.25 1022.5,363C 1018.86,364.099 1015.53,365.766 1012.5,368C 1001,370.397 989.663,369.897 978.5,366.5C 969.493,361.11 963.993,353.11 962,342.5C 960.837,327.375 961.671,312.375 964.5,297.5C 967.139,290.888 970.306,284.554 974,278.5C 980.324,271.333 988.158,266.666 997.5,264.5 Z M 1011.5,293.5 C 1020.05,292.085 1027.21,294.419 1033,300.5C 1032.69,310.597 1031.36,320.597 1029,330.5C 1022.33,339.061 1013.5,342.228 1002.5,340C 1000.67,339.727 999.171,338.893 998,337.5C 995.061,331.758 994.227,325.758 995.5,319.5C 996.52,314.086 997.853,308.753 999.5,303.5C 1002.92,299.172 1006.92,295.838 1011.5,293.5 Z"></path></g><g><path style="opacity:0.962" fill="#1722ff" d="M 815.5,265.5 C 827.167,265.5 838.833,265.5 850.5,265.5C 845.397,299.76 840.73,334.093 836.5,368.5C 824.833,368.5 813.167,368.5 801.5,368.5C 805.73,334.091 810.397,299.758 815.5,265.5 Z"></path></g><g><path style="opacity:0.762" fill="#1722ff" d="M 633.5,400.5 C 640.833,400.5 648.167,400.5 655.5,400.5C 655.5,402.833 655.5,405.167 655.5,407.5C 650.5,407.5 645.5,407.5 640.5,407.5C 640.5,409.5 640.5,411.5 640.5,413.5C 644.833,413.5 649.167,413.5 653.5,413.5C 653.5,415.167 653.5,416.833 653.5,418.5C 649.167,418.5 644.833,418.5 640.5,418.5C 640.5,420.5 640.5,422.5 640.5,424.5C 645.5,424.5 650.5,424.5 655.5,424.5C 655.5,426.5 655.5,428.5 655.5,430.5C 648.167,430.5 640.833,430.5 633.5,430.5C 633.5,420.5 633.5,410.5 633.5,400.5 Z"></path></g><g><path style="opacity:0.828" fill="#1622ff" d="M 667.5,400.5 C 670.525,400.231 673.192,401.064 675.5,403C 679.512,408.045 683.345,413.212 687,418.5C 687.499,412.509 687.666,406.509 687.5,400.5C 689.5,400.5 691.5,400.5 693.5,400.5C 693.5,410.5 693.5,420.5 693.5,430.5C 691.801,430.66 690.134,430.494 688.5,430C 683.702,424.219 679.036,418.385 674.5,412.5C 673.504,418.463 673.171,424.463 673.5,430.5C 671.5,430.5 669.5,430.5 667.5,430.5C 667.5,420.5 667.5,410.5 667.5,400.5 Z"></path></g><g><path style="opacity:0.717" fill="#1722ff" d="M 705.5,400.5 C 713.167,400.5 720.833,400.5 728.5,400.5C 728.5,402.833 728.5,405.167 728.5,407.5C 725.833,407.5 723.167,407.5 720.5,407.5C 720.5,415.167 720.5,422.833 720.5,430.5C 718.167,430.5 715.833,430.5 713.5,430.5C 713.5,422.833 713.5,415.167 713.5,407.5C 710.833,407.5 708.167,407.5 705.5,407.5C 705.5,405.167 705.5,402.833 705.5,400.5 Z"></path></g><g><path style="opacity:0.791" fill="#1722ff" d="M 741.5,400.5 C 748.358,400.024 755.024,400.857 761.5,403C 766.81,409.109 766.476,414.942 760.5,420.5C 762.136,423.742 764.136,426.742 766.5,429.5C 763.894,430.652 761.227,430.818 758.5,430C 756.679,424.458 753.013,421.292 747.5,420.5C 747.5,423.833 747.5,427.167 747.5,430.5C 745.5,430.5 743.5,430.5 741.5,430.5C 741.5,420.5 741.5,410.5 741.5,400.5 Z M 747.5,407.5 C 750.518,407.335 753.518,407.502 756.5,408C 758.602,409.733 758.935,411.733 757.5,414C 754.183,414.498 750.85,414.665 747.5,414.5C 747.5,412.167 747.5,409.833 747.5,407.5 Z"></path></g><g><path style="opacity:0.772" fill="#1722ff" d="M 777.5,400.5 C 785.167,400.5 792.833,400.5 800.5,400.5C 800.5,402.833 800.5,405.167 800.5,407.5C 794.833,407.5 789.167,407.5 783.5,407.5C 783.5,409.5 783.5,411.5 783.5,413.5C 788.167,413.5 792.833,413.5 797.5,413.5C 797.5,415.167 797.5,416.833 797.5,418.5C 792.833,418.5 788.167,418.5 783.5,418.5C 783.5,420.5 783.5,422.5 783.5,424.5C 789.167,424.5 794.833,424.5 800.5,424.5C 800.5,426.5 800.5,428.5 800.5,430.5C 792.833,430.5 785.167,430.5 777.5,430.5C 777.5,420.5 777.5,410.5 777.5,400.5 Z"></path></g><g><path style="opacity:0.817" fill="#1622ff" d="M 821.5,400.5 C 827.492,399.926 832.825,401.426 837.5,405C 836.687,406.803 835.52,408.303 834,409.5C 829.152,406.872 824.319,406.872 819.5,409.5C 815.017,421.442 819.017,426.109 831.5,423.5C 832.429,422.311 832.762,420.978 832.5,419.5C 830.167,419.5 827.833,419.5 825.5,419.5C 825.5,417.5 825.5,415.5 825.5,413.5C 829.833,413.5 834.167,413.5 838.5,413.5C 838.827,418.214 838.493,422.88 837.5,427.5C 831.116,430.837 824.449,431.337 817.5,429C 811.735,423.806 809.902,417.306 812,409.5C 814.455,405.539 817.622,402.539 821.5,400.5 Z"></path></g><g><path style="opacity:0.842" fill="#1622ff" d="M 861.5,400.5 C 863.5,400.5 865.5,400.5 867.5,400.5C 867.62,402.199 867.954,403.865 868.5,405.5C 870.906,410.554 873.406,415.554 876,420.5C 877.15,423.768 877.984,427.101 878.5,430.5C 873.665,431.339 870.999,429.339 870.5,424.5C 866.167,423.167 861.833,423.167 857.5,424.5C 856.963,430.316 853.963,431.983 848.5,429.5C 852.853,419.823 857.186,410.156 861.5,400.5 Z M 862.5,410.5 C 863.5,410.5 864.5,410.5 865.5,410.5C 866.167,413.167 866.833,415.833 867.5,418.5C 865.143,418.663 862.81,418.497 860.5,418C 861.867,415.699 862.534,413.199 862.5,410.5 Z"></path></g><g><path style="opacity:0.728" fill="#1722ff" d="M 908.5,400.5 C 916.5,400.5 924.5,400.5 932.5,400.5C 932.5,402.833 932.5,405.167 932.5,407.5C 929.5,407.5 926.5,407.5 923.5,407.5C 923.5,415.167 923.5,422.833 923.5,430.5C 921.5,430.5 919.5,430.5 917.5,430.5C 917.5,422.833 917.5,415.167 917.5,407.5C 914.5,407.5 911.5,407.5 908.5,407.5C 908.5,405.167 908.5,402.833 908.5,400.5 Z"></path></g><g><path style="opacity:0.823" fill="#1621ff" d="M 951.5,400.5 C 967.168,399.855 973.501,407.188 970.5,422.5C 965.077,430.438 957.744,432.604 948.5,429C 944.784,427.42 942.617,424.587 942,420.5C 941.023,415.266 941.69,410.266 944,405.5C 946.899,404.155 949.399,402.488 951.5,400.5 Z M 952.5,407.5 C 963.908,407.125 967.242,412.292 962.5,423C 953.057,426.53 948.223,423.364 948,413.5C 948.639,410.788 950.139,408.788 952.5,407.5 Z"></path></g><g><path style="opacity:0.717" fill="#1722ff" d="M 981.5,400.5 C 989.167,400.5 996.833,400.5 1004.5,400.5C 1004.5,402.833 1004.5,405.167 1004.5,407.5C 1001.83,407.5 999.167,407.5 996.5,407.5C 996.5,415.167 996.5,422.833 996.5,430.5C 994.167,430.5 991.833,430.5 989.5,430.5C 989.5,422.833 989.5,415.167 989.5,407.5C 986.833,407.5 984.167,407.5 981.5,407.5C 981.5,405.167 981.5,402.833 981.5,400.5 Z"></path></g><g><path style="opacity:0.841" fill="#1621ff" d="M 1022.5,400.5 C 1024.5,400.5 1026.5,400.5 1028.5,400.5C 1031.97,410.745 1036.3,420.579 1041.5,430C 1038.85,430.497 1036.19,430.664 1033.5,430.5C 1033.34,428.173 1032.67,426.007 1031.5,424C 1027.18,423.501 1022.85,423.334 1018.5,423.5C 1018.7,430.197 1015.7,432.197 1009.5,429.5C 1014.8,420.259 1019.14,410.593 1022.5,400.5 Z M 1024.5,409.5 C 1025.59,409.62 1026.25,410.287 1026.5,411.5C 1027.47,413.762 1028.13,416.095 1028.5,418.5C 1026.5,418.5 1024.5,418.5 1022.5,418.5C 1022.87,415.426 1023.54,412.426 1024.5,409.5 Z"></path></g><g><path style="opacity:0.823" fill="#1722ff" d="M 1052.5,400.5 C 1054.5,400.5 1056.5,400.5 1058.5,400.5C 1058.5,408.5 1058.5,416.5 1058.5,424.5C 1063.17,424.5 1067.83,424.5 1072.5,424.5C 1072.5,426.5 1072.5,428.5 1072.5,430.5C 1065.83,430.5 1059.17,430.5 1052.5,430.5C 1052.5,420.5 1052.5,410.5 1052.5,400.5 Z"></path></g></svg>